<svg viewBox="0 0 1280 800" fill="none" xmlns="http://www.w3.org/2000/svg" role="img" aria-label="Hostrig Observe charts: dark nested chrome with series chart and table"><defs><linearGradient id="areaA" x1="0" y1="0" x2="0" y2="1"><stop stop-color="#60a5fa" stop-opacity="0.22"></stop><stop offset="1" stop-color="#60a5fa" stop-opacity="0"></stop></linearGradient></defs><rect width="1280" height="800" fill="#000000"></rect><!-- crumb --><rect width="1280" height="48" fill="#0a0a0a"></rect><rect y="47" width="1280" height="1" fill="#2e2e2e"></rect><g transform="translate(14 10)"><rect x="0.5" y="1.5" width="23" height="19" rx="4" stroke="#f2f2f2" stroke-width="1.6" fill="none"></rect><path d="M6 12h8.5M14.5 12l-3.5-3.2M14.5 12l-3.5 3.2" stroke="#f2f2f2" stroke-width="1.7" stroke-linecap="round" stroke-linejoin="round"></path><rect x="17.5" y="7.5" width="3.5" height="7.5" rx="0.9" fill="#f2f2f2" opacity="0.9"></rect></g><circle cx="62" cy="24" r="10" fill="#242424"></circle><text x="62" y="27.5" fill="#b0b0b0" font-family="DM Sans, system-ui, sans-serif" font-size="8" font-weight="700" text-anchor="middle">MA</text><text x="78" y="28" fill="#f2f2f2" font-family="DM Sans, system-ui, sans-serif" font-size="13" font-weight="500">Marketing</text><text x="150" y="28" fill="#525252" font-family="DM Sans, system-ui, sans-serif" font-size="13">/</text><circle cx="174" cy="24" r="10" fill="#242424"></circle><text x="174" y="27.5" fill="#b0b0b0" font-family="DM Sans, system-ui, sans-serif" font-size="8" font-weight="700" text-anchor="middle">SH</text><text x="190" y="28" fill="#f2f2f2" font-family="DM Sans, system-ui, sans-serif" font-size="13" font-weight="500">showcase</text><!-- Deploy | Observe mode hint --><rect x="560" y="11" width="72" height="26" rx="4" fill="#0a0a0a" stroke="#333"></rect><text x="596" y="28" fill="#8a8a8a" font-family="DM Sans, system-ui, sans-serif" font-size="11" text-anchor="middle">Deploy</text><rect x="636" y="11" width="80" height="26" rx="4" fill="#2a2a2a"></rect><text x="676" y="28" fill="#f2f2f2" font-family="DM Sans, system-ui, sans-serif" font-size="11" font-weight="500" text-anchor="middle">Observe</text><rect x="1000" y="10" width="188" height="28" rx="4" fill="#1c1c1c" stroke="#333"></rect><text x="1014" y="28" fill="#8a8a8a" font-family="DM Sans, system-ui, sans-serif" font-size="11">Search…</text><circle cx="1236" cy="24" r="12" fill="#242424"></circle><text x="1236" y="27.5" fill="#b0b0b0" font-family="DM Sans, system-ui, sans-serif" font-size="8" font-weight="700" text-anchor="middle">MA</text><!-- observe tabs --><rect y="48" width="1280" height="44" fill="#0a0a0a"></rect><rect y="91" width="1280" height="1" fill="#2e2e2e"></rect><text x="48" y="74" fill="#8a8a8a" font-family="DM Sans, system-ui, sans-serif" font-size="12" text-anchor="middle">Overview</text><text x="128" y="74" fill="#8a8a8a" font-family="DM Sans, system-ui, sans-serif" font-size="12" text-anchor="middle">Services</text><rect x="168" y="56" width="64" height="28" rx="4" fill="#2a2a2a"></rect><text x="200" y="74" fill="#f2f2f2" font-family="DM Sans, system-ui, sans-serif" font-size="12" font-weight="500" text-anchor="middle">Charts</text><text x="280" y="74" fill="#8a8a8a" font-family="DM Sans, system-ui, sans-serif" font-size="12" text-anchor="middle">Traces</text><text x="348" y="74" fill="#8a8a8a" font-family="DM Sans, system-ui, sans-serif" font-size="12" text-anchor="middle">Logs</text><text x="410" y="74" fill="#8a8a8a" font-family="DM Sans, system-ui, sans-serif" font-size="12" text-anchor="middle">Issues</text><!-- nested panel --><rect x="10" y="100" width="1260" height="690" rx="6" fill="#121212" stroke="#2e2e2e"></rect><!-- context bar --><rect x="22" y="114" width="1236" height="40" rx="4" fill="#1c1c1c" stroke="#333"></rect><text x="40" y="138" fill="#8a8a8a" font-family="IBM Plex Mono, ui-monospace, monospace" font-size="11">Last 1h</text><rect x="120" y="122" width="1" height="24" fill="#333"></rect><text x="136" y="138" fill="#b0b0b0" font-family="DM Sans, system-ui, sans-serif" font-size="12">service:web · env:production</text><rect x="1120" y="122" width="120" height="24" rx="4" fill="#242424"></rect><text x="1180" y="138" fill="#f2f2f2" font-family="DM Sans, system-ui, sans-serif" font-size="11" text-anchor="middle">Run query</text><!-- chart card --><rect x="22" y="170" width="1236" height="320" rx="4" fill="#1c1c1c" stroke="#333"></rect><text x="40" y="198" fill="#f2f2f2" font-family="DM Sans, system-ui, sans-serif" font-size="12" font-weight="500">Request rate</text><text x="140" y="198" fill="#8a8a8a" font-family="DM Sans, system-ui, sans-serif" font-size="11">p95 latency overlay · 1m buckets</text><circle cx="1180" cy="194" r="4" fill="#60a5fa"></circle><text x="1192" y="198" fill="#8a8a8a" font-family="DM Sans, system-ui, sans-serif" font-size="11">rate</text><circle cx="1236" cy="194" r="4" fill="#22c55e"></circle><text x="1248" y="198" fill="#8a8a8a" font-family="DM Sans, system-ui, sans-serif" font-size="11">p95</text><!-- grid --><line x1="40" y1="230" x2="1230" y2="230" stroke="#333" stroke-opacity="0.55"></line><line x1="40" y1="290" x2="1230" y2="290" stroke="#333" stroke-opacity="0.55"></line><line x1="40" y1="350" x2="1230" y2="350" stroke="#333" stroke-opacity="0.55"></line><line x1="40" y1="410" x2="1230" y2="410" stroke="#333" stroke-opacity="0.55"></line><line x1="40" y1="450" x2="1230" y2="450" stroke="#333" stroke-opacity="0.55"></line><!-- area + lines --><path d="M40 420 L140 380 L240 390 L340 340 L440 360 L540 300 L640 320 L740 280 L840 300 L940 250 L1040 270 L1140 230 L1230 240 L1230 450 L40 450 Z" fill="url(#areaA)"></path><path d="M40 420 L140 380 L240 390 L340 340 L440 360 L540 300 L640 320 L740 280 L840 300 L940 250 L1040 270 L1140 230 L1230 240" stroke="#60a5fa" stroke-width="2" fill="none" stroke-linecap="round" stroke-linejoin="round"></path><path d="M40 400 L140 390 L240 400 L340 370 L440 380 L540 350 L640 360 L740 340 L840 350 L940 320 L1040 330 L1140 300 L1230 310" stroke="#22c55e" stroke-width="1.6" fill="none" stroke-linecap="round" stroke-linejoin="round" opacity="0.9"></path><!-- table card --><rect x="22" y="508" width="1236" height="260" rx="4" fill="#1c1c1c" stroke="#333"></rect><text x="40" y="536" fill="#f2f2f2" font-family="DM Sans, system-ui, sans-serif" font-size="12" font-weight="500">Results</text><text x="100" y="536" fill="#8a8a8a" font-family="DM Sans, system-ui, sans-serif" font-size="11">12 series · sorted by rate</text><!-- header --><text x="40" y="568" fill="#8a8a8a" font-family="IBM Plex Mono, ui-monospace, monospace" font-size="10">SERVICE</text><text x="280" y="568" fill="#8a8a8a" font-family="IBM Plex Mono, ui-monospace, monospace" font-size="10">OPERATION</text><text x="620" y="568" fill="#8a8a8a" font-family="IBM Plex Mono, ui-monospace, monospace" font-size="10">RATE</text><text x="780" y="568" fill="#8a8a8a" font-family="IBM Plex Mono, ui-monospace, monospace" font-size="10">ERROR %</text><text x="960" y="568" fill="#8a8a8a" font-family="IBM Plex Mono, ui-monospace, monospace" font-size="10">P95</text><rect x="40" y="578" width="1200" height="1" fill="#333"></rect><text x="40" y="608" fill="#f2f2f2" font-family="DM Sans, system-ui, sans-serif" font-size="12" font-weight="500">web</text><text x="280" y="608" fill="#b0b0b0" font-family="IBM Plex Mono, ui-monospace, monospace" font-size="12">GET /api/checkout</text><text x="620" y="608" fill="#f2f2f2" font-family="IBM Plex Mono, ui-monospace, monospace" font-size="12">42.1/s</text><text x="780" y="608" fill="#b0b0b0" font-family="IBM Plex Mono, ui-monospace, monospace" font-size="12">0.2%</text><text x="960" y="608" fill="#b0b0b0" font-family="IBM Plex Mono, ui-monospace, monospace" font-size="12">118ms</text><text x="40" y="648" fill="#f2f2f2" font-family="DM Sans, system-ui, sans-serif" font-size="12" font-weight="500">web</text><text x="280" y="648" fill="#b0b0b0" font-family="IBM Plex Mono, ui-monospace, monospace" font-size="12">POST /api/orders</text><text x="620" y="648" fill="#f2f2f2" font-family="IBM Plex Mono, ui-monospace, monospace" font-size="12">18.4/s</text><text x="780" y="648" fill="#b0b0b0" font-family="IBM Plex Mono, ui-monospace, monospace" font-size="12">0.8%</text><text x="960" y="648" fill="#b0b0b0" font-family="IBM Plex Mono, ui-monospace, monospace" font-size="12">204ms</text><text x="40" y="688" fill="#f2f2f2" font-family="DM Sans, system-ui, sans-serif" font-size="12" font-weight="500">worker</text><text x="280" y="688" fill="#b0b0b0" font-family="IBM Plex Mono, ui-monospace, monospace" font-size="12">jobs.process</text><text x="620" y="688" fill="#f2f2f2" font-family="IBM Plex Mono, ui-monospace, monospace" font-size="12">9.2/s</text><text x="780" y="688" fill="#b0b0b0" font-family="IBM Plex Mono, ui-monospace, monospace" font-size="12">0.0%</text><text x="960" y="688" fill="#b0b0b0" font-family="IBM Plex Mono, ui-monospace, monospace" font-size="12">86ms</text><text x="40" y="728" fill="#f2f2f2" font-family="DM Sans, system-ui, sans-serif" font-size="12" font-weight="500">web</text><text x="280" y="728" fill="#b0b0b0" font-family="IBM Plex Mono, ui-monospace, monospace" font-size="12">GET /health</text><text x="620" y="728" fill="#f2f2f2" font-family="IBM Plex Mono, ui-monospace, monospace" font-size="12">4.1/s</text><text x="780" y="728" fill="#b0b0b0" font-family="IBM Plex Mono, ui-monospace, monospace" font-size="12">0.0%</text><text x="960" y="728" fill="#b0b0b0" font-family="IBM Plex Mono, ui-monospace, monospace" font-size="12">12ms</text></svg>